<svg xmlns="http://www.w3.org/2000/svg" viewBox="0 0 346 51"><defs><style>.a{fill:#dfe2eb;}.b{fill:#fdad33;}</style></defs><title>TN_Logo-full</title><path class="a" d="M70,17.6a17.1,17.1,0,0,0-4.4-2.7,18.7,18.7,0,0,0-7.3-1.4,21.1,21.1,0,0,0-7.4,1.3,18.2,18.2,0,0,0-6,3.7,17.1,17.1,0,0,0-4.1,5.8,18.8,18.8,0,0,0-1.5,7.6,18.5,18.5,0,0,0,1.6,8,17,17,0,0,0,4.3,5.8,18.4,18.4,0,0,0,6.2,3.5,22.6,22.6,0,0,0,7.2,1.2,22.3,22.3,0,0,0,10-2.1,15.7,15.7,0,0,0,6.6-5.8L64.6,36.9a6.5,6.5,0,0,1-1.5,1.4,7.1,7.1,0,0,1-4.1,1,6.8,6.8,0,0,1-4.1-1.1A4,4,0,0,1,53.2,36a3.3,3.3,0,0,1-.1-1h23V32.3A20.4,20.4,0,0,0,70,17.6ZM53,27.4a5,5,0,0,1,1.6-2.8,5.2,5.2,0,0,1,3.8-1.4A5.3,5.3,0,0,1,62,24.4a3.8,3.8,0,0,1,1.3,3Z"/><path class="a" d="M103.7,37.3a6.9,6.9,0,0,1-2.5.5,6.6,6.6,0,0,1-2.1-.4,5.8,5.8,0,0,1-1.9-1,5.2,5.2,0,0,1-1.3-1.8,6.3,6.3,0,0,1,0-5,6,6,0,0,1,1.3-1.8A5.2,5.2,0,0,1,99,26.7a6.6,6.6,0,0,1,2.1-.4,7,7,0,0,1,2.4.5,5,5,0,0,1,2,1.3L113,17.3a11.7,11.7,0,0,0-2.4-1.4l-3.1-1.2-3.4-.8-3.5-.3a23.7,23.7,0,0,0-8,1.3,19.4,19.4,0,0,0-6.4,3.7,16.8,16.8,0,0,0-4.3,5.8A18.3,18.3,0,0,0,80.4,32a18.6,18.6,0,0,0,1.5,7.6,16.9,16.9,0,0,0,4.2,5.8,18.6,18.6,0,0,0,6.4,3.7,23.6,23.6,0,0,0,8,1.3,22.1,22.1,0,0,0,7.2-1.2,18.8,18.8,0,0,0,5.6-2.8l-7.5-10.5A5.4,5.4,0,0,1,103.7,37.3Z"/><polygon class="a" points="11 49 27 49 11 33 11 49"/><polygon class="b" points="0 16 11 16 27 32 27 16 38 16 38 0 0 0 0 16"/><path class="a" d="M341.2,30.8a13.7,13.7,0,0,0-3.4-2.1,19.5,19.5,0,0,0-3.9-1.2,23.1,23.1,0,0,1-3.7-.9q-.8-.4-.8-1a1.1,1.1,0,0,1,.7-1.1,4.8,4.8,0,0,1,1.8-.3,10.1,10.1,0,0,1,3.3.6,15.7,15.7,0,0,1,3.3,1.6l7-8.4a26.1,26.1,0,0,0-7-3.2,27.3,27.3,0,0,0-7.9-1.2,19.9,19.9,0,0,0-5,.7,16.4,16.4,0,0,0-4.9,2.1,12.2,12.2,0,0,0-3.7,3.8,10.5,10.5,0,0,0-1.5,5.7,9.3,9.3,0,0,0,.9,4.3,10.1,10.1,0,0,0,2.3,3,11.9,11.9,0,0,0,3.1,2,19.4,19.4,0,0,0,3.3,1.1l4.2,1.2q1.2.5,1.2,1.3a1.1,1.1,0,0,1-.7,1.1,3.7,3.7,0,0,1-1.5.3,10.6,10.6,0,0,1-4.1-.9,12.4,12.4,0,0,1-3.7-2.3l-7.3,8.5a23.2,23.2,0,0,0,7.4,3.6,30.3,30.3,0,0,0,8.7,1.3,22.3,22.3,0,0,0,5.1-.6,15.9,15.9,0,0,0,4.9-2,11.5,11.5,0,0,0,3.7-3.7,10.7,10.7,0,0,0,1.5-5.8,9.2,9.2,0,0,0-3.3-7.4Z"/><polygon class="a" points="298.1 15 294 32.5 293.8 32.5 289.1 15 274.6 15 270.2 32.5 269.9 32.5 265.7 15 249.7 15 261.3 49 276.2 49 281.3 31.5 281.4 31.5 286.7 49 301.7 49 313.4 15 298.1 15"/><path class="a" d="M151.5,18.6a10.7,10.7,0,0,0-3.8-3.3,13.8,13.8,0,0,0-6.3-1.3,11,11,0,0,0-5.6,1.4,11.2,11.2,0,0,0-3.7,3.3H132V0H117V49h15V30.9a4.6,4.6,0,0,1,2-4.3,3.9,3.9,0,0,1,1.5-.4,3.6,3.6,0,0,1,2.3.7c1.3,1,1.2,3.2,1.2,4V49h15V28.2a23.7,23.7,0,0,0-.5-5.1A13,13,0,0,0,151.5,18.6Z"/><polygon class="a" points="191 26.2 190.6 26.2 177.6 3 162 3 162 49 176 49 176 27 176.4 27 189.1 49 205 49 205 3 191 3 191 26.2"/><path class="a" d="M242.4,17.6a17.1,17.1,0,0,0-4.4-2.7,18.7,18.7,0,0,0-7.3-1.4,21.1,21.1,0,0,0-7.4,1.3,18.2,18.2,0,0,0-6,3.7,17.1,17.1,0,0,0-4.1,5.8,18.8,18.8,0,0,0-1.5,7.6,18.5,18.5,0,0,0,1.6,8,17,17,0,0,0,4.3,5.8,18.4,18.4,0,0,0,6.2,3.5,22.6,22.6,0,0,0,7.2,1.2,22.3,22.3,0,0,0,10-2.1,15.7,15.7,0,0,0,6.6-5.8L237,36.9a6.5,6.5,0,0,1-1.5,1.4,7.1,7.1,0,0,1-4.1,1,6.8,6.8,0,0,1-4.1-1.1,4,4,0,0,1-1.7-2.2,3.3,3.3,0,0,1-.1-1h23V32.3A20.4,20.4,0,0,0,242.4,17.6Zm-17,9.8a5,5,0,0,1,1.6-2.8,5.2,5.2,0,0,1,3.8-1.4,5.3,5.3,0,0,1,3.6,1.2,3.8,3.8,0,0,1,1.3,3Z"/></svg>